<svg data-v-423bf9ae="" xmlns="http://www.w3.org/2000/svg" viewBox="0 0 774 90" class="iconLeft"><!----><!----><!----><g data-v-423bf9ae="" id="a226856e-aa94-4bf8-93b0-d493134a2cd5" fill="black" transform="matrix(4.548900604248047,0,0,4.548900604248047,91.4884033203125,1.580743432044983)"><path d="M7.25 10.92L7.51 11.10L6.13 13.33Q5.67 13.25 5.27 13.19Q4.88 13.13 4.50 13.07Q4.12 13.02 3.73 12.97Q3.33 12.91 2.87 12.84L2.87 12.84Q2.69 12.80 2.52 12.79Q2.34 12.77 2.17 12.77L2.17 12.77Q1.79 12.77 1.45 12.87Q1.10 12.97 0.79 13.19L0.79 13.19L0.57 12.97Q0.72 12.84 0.82 12.67Q0.92 12.50 0.99 12.31Q1.07 12.11 1.10 11.92Q1.13 11.72 1.13 11.54L1.13 11.54L1.13 7.51Q1.13 6.55 1.47 5.72Q1.80 4.89 2.40 4.28Q2.99 3.67 3.79 3.32Q4.59 2.97 5.53 2.97L5.53 2.97Q5.83 2.97 6.11 3.04Q6.39 3.10 6.61 3.25Q6.82 3.40 6.95 3.64Q7.08 3.88 7.08 4.23L7.08 4.23Q7.08 4.54 6.97 4.83Q6.85 5.11 6.65 5.37Q6.45 5.63 6.18 5.85Q5.92 6.08 5.63 6.25Q5.35 6.43 5.04 6.56Q4.74 6.68 4.48 6.75L4.48 6.75L4.37 6.49Q4.60 6.35 4.85 6.17Q5.10 6.00 5.30 5.78Q5.51 5.56 5.64 5.31Q5.77 5.05 5.77 4.75L5.77 4.75Q5.77 4.51 5.68 4.31Q5.59 4.11 5.44 3.96Q5.28 3.82 5.08 3.74Q4.88 3.66 4.65 3.66L4.65 3.66Q4.14 3.66 3.75 3.88Q3.36 4.09 3.09 4.45Q2.82 4.81 2.69 5.26Q2.55 5.71 2.55 6.17L2.55 6.17L2.55 10.58Q2.55 10.83 2.47 11.08Q2.40 11.32 2.27 11.54Q2.15 11.76 1.98 11.96Q1.80 12.16 1.61 12.33L1.61 12.33Q1.83 12.17 2.04 12.03Q2.24 11.90 2.46 11.81Q2.67 11.71 2.91 11.66Q3.14 11.61 3.42 11.61L3.42 11.61Q3.76 11.61 4.03 11.64Q4.29 11.68 4.55 11.71Q4.81 11.75 5.07 11.79Q5.34 11.82 5.68 11.82L5.68 11.82Q5.92 11.82 6.14 11.75Q6.36 11.68 6.56 11.55Q6.76 11.43 6.94 11.27Q7.11 11.11 7.25 10.92L7.25 10.92ZM10.53 13.19L10.53 13.19Q10.02 13.19 9.58 13.01Q9.14 12.83 8.81 12.51Q8.49 12.19 8.30 11.75Q8.11 11.32 8.11 10.81L8.11 10.81Q8.11 10.23 8.31 9.72Q8.50 9.21 8.84 8.80Q9.17 8.39 9.64 8.09Q10.10 7.79 10.64 7.62L10.64 7.62L10.83 7.85Q10.53 8.08 10.26 8.37Q9.99 8.66 9.80 9.00Q9.60 9.34 9.48 9.71Q9.37 10.08 9.37 10.47L9.37 10.47Q9.37 10.80 9.46 11.16Q9.56 11.53 9.75 11.83Q9.94 12.13 10.23 12.32Q10.52 12.52 10.90 12.52L10.90 12.52Q11.25 12.52 11.49 12.39Q11.74 12.27 11.91 12.06Q12.07 11.85 12.15 11.56Q12.24 11.28 12.24 10.96L12.24 10.96Q12.24 10.60 12.09 10.21Q11.95 9.82 11.70 9.50Q11.45 9.17 11.12 8.95Q10.78 8.73 10.40 8.70L10.40 8.70Q10.64 8.42 10.92 8.19Q11.21 7.96 11.50 7.75L11.50 7.75Q11.90 7.88 12.21 8.13Q12.51 8.38 12.72 8.71Q12.93 9.04 13.04 9.42Q13.15 9.81 13.15 10.21L13.15 10.21Q13.15 10.75 12.96 11.28Q12.77 11.81 12.42 12.24Q12.08 12.67 11.60 12.93Q11.12 13.19 10.53 13.19ZM14.31 4.61L15.74 4.12L15.37 6.61L14.71 6.82L14.31 4.61ZM15.69 7.75L15.69 12.48Q15.69 12.95 15.58 13.38Q15.46 13.80 15.27 14.17Q15.07 14.54 14.81 14.86Q14.54 15.18 14.23 15.43L14.23 15.43Q13.79 15.77 13.32 15.96L13.32 15.96Q13.12 16.04 12.89 16.09Q12.67 16.14 12.44 16.14Q12.21 16.14 11.97 16.07Q11.74 16.00 11.52 15.84L11.52 15.84L12.29 14.87Q12.65 15.16 12.96 15.22Q13.27 15.29 13.50 15.25L13.50 15.25Q13.77 15.21 13.99 15.07L13.99 15.07Q14.18 14.92 14.28 14.64Q14.38 14.36 14.41 14.01Q14.44 13.66 14.43 13.29Q14.43 12.91 14.43 12.58L14.43 12.58L14.43 8.18L15.69 7.75ZM22.41 12.01L22.59 12.22Q22.51 12.40 22.39 12.56Q22.26 12.71 22.10 12.84Q21.94 12.96 21.76 13.03Q21.57 13.10 21.36 13.10L21.36 13.10Q20.82 13.10 20.59 12.81Q20.35 12.51 20.35 12.00L20.35 12.00L20.35 11.87Q20.23 12.11 20.07 12.34Q19.92 12.57 19.73 12.76Q19.53 12.94 19.29 13.06Q19.05 13.17 18.76 13.17L18.76 13.17Q18.31 13.17 17.97 13.00Q17.63 12.83 17.40 12.54Q17.17 12.25 17.05 11.86Q16.93 11.47 16.93 11.03L16.93 11.03Q16.93 10.44 17.14 9.85Q17.35 9.26 17.73 8.79Q18.11 8.33 18.64 8.04Q19.17 7.75 19.82 7.75L19.82 7.75Q20.08 7.75 20.34 7.79Q20.60 7.84 20.83 7.95Q21.07 8.05 21.26 8.22Q21.46 8.39 21.58 8.64L21.58 8.64L20.56 9.07Q20.48 8.94 20.37 8.82Q20.27 8.70 20.14 8.61Q20.02 8.52 19.87 8.47Q19.73 8.42 19.57 8.42L19.57 8.42Q19.22 8.42 18.94 8.63Q18.66 8.85 18.47 9.17Q18.27 9.50 18.17 9.86Q18.07 10.22 18.07 10.51L18.07 10.51Q18.07 10.77 18.12 11.10Q18.17 11.42 18.30 11.71Q18.43 12.00 18.64 12.20Q18.85 12.39 19.17 12.39L19.17 12.39Q19.43 12.39 19.61 12.28Q19.80 12.17 19.93 11.99Q20.06 11.81 20.14 11.57Q20.23 11.33 20.27 11.09Q20.32 10.84 20.33 10.60Q20.35 10.36 20.35 10.17L20.35 10.17L20.35 9.69L21.59 9.26L21.59 12.03Q21.59 12.17 21.66 12.28Q21.73 12.39 21.88 12.39L21.88 12.39Q22.05 12.39 22.19 12.27Q22.33 12.14 22.41 12.01L22.41 12.01ZM31.51 12.01L31.71 12.22Q31.62 12.40 31.49 12.56Q31.36 12.71 31.21 12.84Q31.05 12.96 30.86 13.03Q30.67 13.10 30.47 13.10L30.47 13.10Q29.93 13.10 29.69 12.81Q29.45 12.51 29.45 12.00L29.45 12.00L29.45 11.87Q29.33 12.11 29.18 12.34Q29.03 12.57 28.84 12.76Q28.64 12.94 28.40 13.06Q28.16 13.17 27.86 13.17L27.86 13.17Q27.40 13.17 27.05 12.99Q26.71 12.81 26.48 12.51Q26.24 12.20 26.12 11.80Q26.00 11.40 26.00 10.95L26.00 10.95Q26.00 10.38 26.18 9.80Q26.36 9.21 26.70 8.74Q27.04 8.27 27.54 7.97Q28.04 7.68 28.68 7.68L28.68 7.68Q29.08 7.68 29.45 7.87L29.45 7.87L29.45 3.67L30.71 3.23L30.71 12.03Q30.71 12.17 30.78 12.28Q30.84 12.39 30.99 12.39L30.99 12.39Q31.15 12.39 31.29 12.27Q31.42 12.14 31.51 12.01L31.51 12.01ZM29.45 10.17L29.45 10.17L29.45 8.71Q29.29 8.55 29.10 8.45Q28.90 8.35 28.67 8.35L28.67 8.35Q28.27 8.35 27.99 8.57Q27.71 8.78 27.53 9.11Q27.35 9.44 27.27 9.82Q27.19 10.20 27.19 10.53L27.19 10.53Q27.19 10.79 27.24 11.11Q27.29 11.44 27.42 11.72Q27.54 12.00 27.75 12.20Q27.96 12.39 28.27 12.39L28.27 12.39Q28.53 12.39 28.71 12.28Q28.90 12.17 29.03 11.99Q29.16 11.81 29.24 11.57Q29.33 11.33 29.37 11.09Q29.42 10.84 29.43 10.60Q29.45 10.36 29.45 10.17ZM36.91 11.48L37.12 11.70Q36.88 12.01 36.60 12.28Q36.31 12.54 35.98 12.74Q35.65 12.94 35.28 13.06Q34.91 13.17 34.51 13.17L34.51 13.17Q34.01 13.17 33.58 12.99Q33.16 12.81 32.85 12.49Q32.55 12.17 32.38 11.74Q32.20 11.31 32.20 10.81L32.20 10.81Q32.20 10.40 32.32 10.00Q32.44 9.60 32.65 9.26Q32.86 8.91 33.15 8.61Q33.44 8.31 33.79 8.10Q34.14 7.89 34.53 7.77Q34.92 7.65 35.33 7.65L35.33 7.65Q35.62 7.65 35.87 7.72Q36.13 7.79 36.33 7.93Q36.52 8.08 36.64 8.31Q36.76 8.54 36.76 8.85L36.76 8.85Q36.76 9.11 36.60 9.40Q36.45 9.69 36.20 9.97Q35.95 10.26 35.64 10.54Q35.32 10.81 35.00 11.05Q34.67 11.29 34.37 11.46Q34.07 11.64 33.84 11.74L33.84 11.74Q34.10 12.05 34.43 12.25Q34.77 12.45 35.14 12.45L35.14 12.45Q35.38 12.45 35.63 12.36Q35.88 12.26 36.10 12.12Q36.33 11.98 36.54 11.81Q36.75 11.63 36.91 11.48L36.91 11.48ZM35.47 9.11L35.47 9.11Q35.47 8.95 35.42 8.80Q35.37 8.66 35.27 8.56Q35.18 8.45 35.04 8.38Q34.91 8.32 34.74 8.32L34.74 8.32Q34.43 8.32 34.17 8.53Q33.91 8.75 33.73 9.06Q33.54 9.38 33.43 9.73Q33.33 10.08 33.33 10.35L33.33 10.35Q33.33 10.61 33.41 10.88Q33.49 11.16 33.63 11.41L33.63 11.41Q33.91 11.26 34.23 10.99Q34.55 10.73 34.83 10.41Q35.10 10.09 35.29 9.75Q35.47 9.41 35.47 9.11ZM41.00 4.61L42.44 4.12L42.08 6.61L41.41 6.82L41.00 4.61ZM43.20 12.03L43.38 12.24Q43.22 12.57 43.02 12.75Q42.81 12.93 42.62 13.01L42.62 13.01Q42.39 13.10 42.16 13.12L42.16 13.12Q41.86 13.12 41.66 13.02Q41.46 12.93 41.34 12.77Q41.23 12.61 41.18 12.41Q41.14 12.22 41.14 12.01L41.14 12.01L41.14 8.18L42.40 7.75L42.40 12.04Q42.40 12.21 42.47 12.30Q42.55 12.40 42.67 12.40Q42.79 12.41 42.93 12.32Q43.07 12.23 43.20 12.03L43.20 12.03ZM49.68 12.03L49.88 12.24Q49.79 12.41 49.66 12.57Q49.53 12.73 49.37 12.85Q49.21 12.97 49.03 13.05Q48.84 13.12 48.64 13.12L48.64 13.12Q48.10 13.12 47.86 12.82Q47.62 12.52 47.62 12.01L47.62 12.01L47.62 9.23Q47.62 9.18 47.62 9.12Q47.61 9.05 47.59 8.99Q47.57 8.93 47.54 8.89Q47.50 8.85 47.44 8.85L47.44 8.85Q47.25 8.85 47.06 9.08Q46.86 9.32 46.68 9.69Q46.50 10.06 46.34 10.51Q46.19 10.97 46.07 11.42Q45.96 11.87 45.89 12.26Q45.83 12.65 45.83 12.88L45.83 12.88L44.58 13.32L44.58 8.72Q44.58 8.59 44.52 8.47Q44.45 8.36 44.30 8.36L44.30 8.36Q44.13 8.36 43.99 8.49Q43.85 8.61 43.77 8.74L43.77 8.74L43.59 8.53Q43.67 8.36 43.79 8.20Q43.92 8.04 44.08 7.92Q44.24 7.79 44.43 7.72Q44.62 7.65 44.82 7.65L44.82 7.65Q45.36 7.65 45.59 7.95Q45.83 8.24 45.83 8.75L45.83 8.75L45.83 10.98Q45.89 10.70 46.00 10.34Q46.10 9.98 46.25 9.61Q46.40 9.24 46.59 8.89Q46.78 8.54 47.00 8.26Q47.23 7.98 47.50 7.82Q47.76 7.65 48.07 7.65L48.07 7.65Q48.39 7.65 48.56 7.79Q48.72 7.93 48.79 8.15Q48.86 8.36 48.87 8.62Q48.88 8.88 48.88 9.12L48.88 9.12L48.88 12.04Q48.88 12.18 48.95 12.29Q49.01 12.41 49.16 12.41L49.16 12.41Q49.31 12.41 49.45 12.28Q49.59 12.15 49.68 12.03L49.68 12.03ZM53.71 11.15L53.71 11.15Q53.71 11.57 53.55 11.94Q53.40 12.31 53.13 12.58Q52.86 12.86 52.48 13.02Q52.11 13.17 51.68 13.17L51.68 13.17Q51.50 13.17 51.28 13.14Q51.06 13.10 50.85 13.04Q50.64 12.97 50.45 12.87Q50.26 12.76 50.14 12.62L50.14 12.62L50.95 11.57Q51.03 11.70 51.15 11.85Q51.27 12.00 51.42 12.13Q51.56 12.26 51.73 12.35Q51.90 12.43 52.07 12.43L52.07 12.43Q52.27 12.43 52.44 12.37Q52.62 12.30 52.75 12.17Q52.88 12.04 52.95 11.87Q53.03 11.70 53.03 11.50L53.03 11.50Q53.03 11.22 52.84 11.00Q52.65 10.77 52.39 10.55Q52.14 10.34 51.86 10.11Q51.58 9.88 51.41 9.60L51.41 9.60L50.70 10.64L50.44 10.45L51.26 9.31Q51.16 9.11 51.11 8.89Q51.05 8.67 51.05 8.46L51.05 8.46Q51.05 8.27 51.11 8.07Q51.17 7.86 51.29 7.69Q51.41 7.52 51.57 7.41Q51.74 7.29 51.96 7.29L51.96 7.29Q52.17 7.29 52.32 7.42Q52.47 7.55 52.47 7.79L52.47 7.79Q52.47 7.91 52.42 8.03Q52.38 8.16 52.32 8.28Q52.26 8.40 52.19 8.51Q52.11 8.63 52.04 8.72L52.04 8.72Q52.21 8.96 52.40 9.13Q52.59 9.30 52.77 9.45Q52.96 9.60 53.13 9.75Q53.30 9.90 53.43 10.09Q53.55 10.28 53.63 10.53Q53.71 10.79 53.71 11.15ZM52.16 7.91L52.16 7.91Q52.16 7.81 52.09 7.77Q52.03 7.72 51.95 7.72L51.95 7.72Q51.83 7.72 51.78 7.80Q51.73 7.88 51.73 7.97L51.73 7.97Q51.73 8.11 51.78 8.24Q51.82 8.37 51.89 8.48L51.89 8.48Q51.92 8.44 51.96 8.36Q52.01 8.29 52.05 8.20Q52.10 8.11 52.13 8.04Q52.16 7.96 52.16 7.91ZM57.04 12.03L57.22 12.24Q57.07 12.57 56.86 12.75Q56.66 12.93 56.46 13.01L56.46 13.01Q56.23 13.10 55.99 13.12L55.99 13.12Q55.69 13.12 55.49 13.02Q55.30 12.93 55.18 12.77Q55.07 12.61 55.03 12.41Q54.98 12.22 54.98 12.01L54.98 12.01L54.98 8.43L54.26 8.43L54.55 7.75L54.98 7.75L54.98 5.33L56.23 4.89L56.23 7.75L57.53 7.75L57.25 8.43L56.23 8.43L56.23 12.04Q56.23 12.21 56.31 12.30Q56.38 12.40 56.50 12.40Q56.62 12.41 56.76 12.32Q56.90 12.23 57.04 12.03L57.04 12.03ZM61.96 12.11L62.13 12.29Q62.00 12.48 61.82 12.64Q61.65 12.79 61.43 12.90Q61.22 13.01 60.99 13.07Q60.76 13.13 60.53 13.13L60.53 13.13Q60.23 13.13 60.02 13.02Q59.80 12.91 59.66 12.72Q59.53 12.54 59.46 12.29Q59.40 12.04 59.40 11.78L59.40 11.78Q59.40 11.43 59.50 11.03Q59.61 10.63 59.79 10.24Q59.97 9.85 60.20 9.52Q60.44 9.18 60.70 8.96L60.70 8.96Q60.46 9.12 60.17 9.21Q59.89 9.30 59.60 9.30L59.60 9.30Q59.38 9.30 59.23 9.26Q59.07 9.23 58.88 9.13L58.88 9.13L58.17 10.62L57.87 10.50L58.61 8.99Q58.50 8.91 58.36 8.78Q58.23 8.65 58.17 8.53L58.17 8.53L59.12 7.46Q59.18 7.65 59.29 7.84Q59.40 8.03 59.54 8.17Q59.69 8.32 59.87 8.42Q60.05 8.51 60.27 8.51L60.27 8.51Q60.63 8.51 60.97 8.38Q61.31 8.24 61.61 8.05L61.61 8.05L61.79 8.24Q61.53 8.48 61.27 8.77Q61.00 9.06 60.79 9.39Q60.58 9.71 60.45 10.08Q60.32 10.44 60.32 10.81L60.32 10.81Q60.32 11.02 60.38 11.28Q60.44 11.55 60.56 11.78Q60.68 12.02 60.87 12.18Q61.05 12.34 61.31 12.34L61.31 12.34Q61.49 12.34 61.66 12.27Q61.82 12.21 61.96 12.11L61.96 12.11ZM68.39 12.03L68.58 12.24Q68.42 12.57 68.21 12.75Q68.00 12.93 67.81 13.01L67.81 13.01Q67.58 13.10 67.35 13.12L67.35 13.12Q67.04 13.12 66.85 13.02Q66.65 12.93 66.53 12.77Q66.42 12.61 66.37 12.41Q66.33 12.22 66.33 12.01L66.33 12.01L66.33 9.83Q66.27 10.08 66.19 10.42Q66.10 10.76 65.98 11.13Q65.86 11.50 65.69 11.87Q65.53 12.24 65.31 12.52Q65.10 12.81 64.83 12.99Q64.56 13.17 64.22 13.17L64.22 13.17Q63.94 13.17 63.78 13.07Q63.62 12.96 63.54 12.77Q63.46 12.57 63.45 12.30Q63.43 12.03 63.43 11.70L63.43 11.70L63.43 8.74Q63.43 8.57 63.36 8.48Q63.28 8.38 63.16 8.38Q63.04 8.37 62.90 8.46Q62.75 8.55 62.62 8.75L62.62 8.75L62.43 8.54Q62.59 8.22 62.79 8.04Q63 7.85 63.20 7.77L63.20 7.77Q63.42 7.68 63.66 7.66L63.66 7.66Q63.97 7.66 64.17 7.76Q64.36 7.85 64.47 8.01Q64.59 8.16 64.63 8.36Q64.67 8.56 64.67 8.76L64.67 8.76L64.67 11.59Q64.67 11.86 64.77 11.94Q64.87 12.02 65.02 11.92Q65.17 11.81 65.36 11.53Q65.55 11.25 65.74 10.78L65.74 10.78Q65.86 10.34 65.98 9.86L65.98 9.86Q66.08 9.46 66.18 8.98Q66.27 8.49 66.33 8.04L66.33 8.04L67.59 7.60L67.59 12.04Q67.59 12.21 67.66 12.30Q67.74 12.40 67.85 12.40Q67.97 12.41 68.11 12.32Q68.25 12.23 68.39 12.03L68.39 12.03ZM76.75 12.03L76.94 12.24Q76.78 12.57 76.57 12.75Q76.36 12.93 76.17 13.01L76.17 13.01Q75.94 13.10 75.71 13.12L75.71 13.12Q75.40 13.12 75.21 13.02Q75.01 12.93 74.89 12.77Q74.78 12.61 74.73 12.41Q74.69 12.22 74.69 12.01L74.69 12.01L74.69 9.15Q74.69 9.04 74.65 8.95Q74.61 8.87 74.54 8.85Q74.47 8.84 74.38 8.92Q74.28 9.00 74.17 9.21L74.17 9.21Q73.99 9.76 73.83 10.36L73.83 10.36Q73.71 10.88 73.60 11.54Q73.49 12.19 73.48 12.88L73.48 12.88L72.22 13.32L72.22 9.15Q72.22 9.04 72.18 8.95Q72.14 8.87 72.07 8.85Q72.00 8.84 71.90 8.92Q71.80 9.00 71.70 9.21L71.70 9.21Q71.50 9.79 71.35 10.41L71.35 10.41Q71.28 10.68 71.22 10.98Q71.16 11.28 71.11 11.60Q71.07 11.92 71.04 12.24Q71.01 12.56 71.02 12.88L71.02 12.88L69.77 13.32L69.77 8.72Q69.77 8.56 69.70 8.46Q69.62 8.37 69.50 8.36Q69.38 8.36 69.24 8.45Q69.10 8.54 68.96 8.74L68.96 8.74L68.78 8.53Q68.93 8.20 69.14 8.02Q69.35 7.84 69.55 7.76L69.55 7.76Q69.77 7.66 70.01 7.65L70.01 7.65Q70.31 7.65 70.51 7.75Q70.70 7.84 70.82 7.99Q70.93 8.15 70.97 8.35Q71.02 8.54 71.02 8.75L71.02 8.75L71.02 10.19Q71.14 9.58 71.39 9.11Q71.63 8.63 71.90 8.31Q72.17 7.98 72.43 7.82Q72.69 7.65 72.85 7.65L72.85 7.65Q73.05 7.65 73.17 7.71Q73.29 7.78 73.36 7.91Q73.43 8.04 73.46 8.23Q73.48 8.42 73.48 8.67L73.48 8.67L73.48 10.19Q73.61 9.58 73.85 9.11Q74.09 8.63 74.37 8.31Q74.64 7.98 74.90 7.82Q75.16 7.65 75.32 7.65L75.32 7.65Q75.71 7.65 75.83 7.91Q75.95 8.16 75.95 8.67L75.95 8.67L75.95 12.04Q75.95 12.21 76.02 12.30Q76.10 12.40 76.21 12.40Q76.33 12.41 76.47 12.32Q76.61 12.23 76.75 12.03L76.75 12.03ZM82.14 11.48L82.35 11.70Q82.11 12.01 81.82 12.28Q81.54 12.54 81.21 12.74Q80.88 12.94 80.51 13.06Q80.14 13.17 79.74 13.17L79.74 13.17Q79.24 13.17 78.81 12.99Q78.39 12.81 78.08 12.49Q77.77 12.17 77.60 11.74Q77.43 11.31 77.43 10.81L77.43 10.81Q77.43 10.40 77.55 10.00Q77.66 9.60 77.88 9.26Q78.09 8.91 78.38 8.61Q78.67 8.31 79.02 8.10Q79.37 7.89 79.75 7.77Q80.14 7.65 80.55 7.65L80.55 7.65Q80.84 7.65 81.10 7.72Q81.35 7.79 81.55 7.93Q81.75 8.08 81.87 8.31Q81.98 8.54 81.98 8.85L81.98 8.85Q81.98 9.11 81.83 9.40Q81.68 9.69 81.43 9.97Q81.18 10.26 80.86 10.54Q80.55 10.81 80.22 11.05Q79.90 11.29 79.60 11.46Q79.30 11.64 79.07 11.74L79.07 11.74Q79.32 12.05 79.66 12.25Q79.99 12.45 80.37 12.45L80.37 12.45Q80.61 12.45 80.86 12.36Q81.10 12.26 81.33 12.12Q81.56 11.98 81.77 11.81Q81.98 11.63 82.14 11.48L82.14 11.48ZM80.70 9.11L80.70 9.11Q80.70 8.95 80.65 8.80Q80.60 8.66 80.50 8.56Q80.40 8.45 80.27 8.38Q80.14 8.32 79.97 8.32L79.97 8.32Q79.66 8.32 79.40 8.53Q79.14 8.75 78.95 9.06Q78.76 9.38 78.66 9.73Q78.55 10.08 78.55 10.35L78.55 10.35Q78.55 10.61 78.63 10.88Q78.72 11.16 78.86 11.41L78.86 11.41Q79.13 11.26 79.45 10.99Q79.78 10.73 80.05 10.41Q80.33 10.09 80.51 9.75Q80.70 9.41 80.70 9.11ZM88.77 12.03L88.97 12.24Q88.89 12.41 88.76 12.57Q88.63 12.73 88.47 12.85Q88.31 12.97 88.12 13.05Q87.94 13.12 87.74 13.12L87.74 13.12Q87.20 13.12 86.96 12.82Q86.71 12.52 86.71 12.01L86.71 12.01L86.71 9.23Q86.71 9.18 86.71 9.12Q86.71 9.05 86.69 8.99Q86.67 8.93 86.63 8.89Q86.60 8.85 86.54 8.85L86.54 8.85Q86.34 8.85 86.15 9.08Q85.96 9.32 85.77 9.69Q85.59 10.06 85.44 10.51Q85.29 10.97 85.17 11.42Q85.05 11.87 84.99 12.26Q84.92 12.65 84.92 12.88L84.92 12.88L83.68 13.32L83.68 8.72Q83.68 8.59 83.61 8.47Q83.54 8.36 83.40 8.36L83.40 8.36Q83.23 8.36 83.09 8.49Q82.95 8.61 82.87 8.74L82.87 8.74L82.68 8.53Q82.76 8.36 82.89 8.20Q83.02 8.04 83.18 7.92Q83.34 7.79 83.52 7.72Q83.71 7.65 83.92 7.65L83.92 7.65Q84.45 7.65 84.69 7.95Q84.92 8.24 84.92 8.75L84.92 8.75L84.92 10.98Q84.98 10.70 85.09 10.34Q85.20 9.98 85.35 9.61Q85.50 9.24 85.69 8.89Q85.87 8.54 86.10 8.26Q86.32 7.98 86.59 7.82Q86.86 7.65 87.17 7.65L87.17 7.65Q87.49 7.65 87.65 7.79Q87.81 7.93 87.89 8.15Q87.96 8.36 87.96 8.62Q87.97 8.88 87.97 9.12L87.97 9.12L87.97 12.04Q87.97 12.18 88.04 12.29Q88.11 12.41 88.25 12.41L88.25 12.41Q88.41 12.41 88.55 12.28Q88.69 12.15 88.77 12.03L88.77 12.03ZM92.09 12.03L92.27 12.24Q92.11 12.57 91.91 12.75Q91.70 12.93 91.51 13.01L91.51 13.01Q91.28 13.10 91.04 13.12L91.04 13.12Q90.73 13.12 90.54 13.02Q90.34 12.93 90.23 12.77Q90.12 12.61 90.07 12.41Q90.03 12.22 90.03 12.01L90.03 12.01L90.03 8.43L89.30 8.43L89.60 7.75L90.03 7.75L90.03 5.33L91.28 4.89L91.28 7.75L92.58 7.75L92.30 8.43L91.28 8.43L91.28 12.04Q91.28 12.21 91.36 12.30Q91.43 12.40 91.55 12.40Q91.66 12.41 91.81 12.32Q91.95 12.23 92.09 12.03L92.09 12.03ZM95.48 13.19L95.48 13.19Q94.98 13.19 94.54 13.01Q94.10 12.83 93.77 12.51Q93.45 12.19 93.26 11.75Q93.07 11.32 93.07 10.81L93.07 10.81Q93.07 10.23 93.26 9.72Q93.45 9.21 93.79 8.80Q94.13 8.39 94.59 8.09Q95.05 7.79 95.59 7.62L95.59 7.62L95.79 7.85Q95.48 8.08 95.22 8.37Q94.95 8.66 94.75 9.00Q94.55 9.34 94.44 9.71Q94.32 10.08 94.32 10.47L94.32 10.47Q94.32 10.80 94.42 11.16Q94.51 11.53 94.71 11.83Q94.90 12.13 95.19 12.32Q95.48 12.52 95.86 12.52L95.86 12.52Q96.20 12.52 96.45 12.39Q96.70 12.27 96.87 12.06Q97.03 11.85 97.11 11.56Q97.19 11.28 97.19 10.96L97.19 10.96Q97.19 10.60 97.05 10.21Q96.91 9.82 96.66 9.50Q96.41 9.17 96.07 8.95Q95.74 8.73 95.35 8.70L95.35 8.70Q95.59 8.42 95.88 8.19Q96.17 7.96 96.46 7.75L96.46 7.75Q96.86 7.88 97.16 8.13Q97.47 8.38 97.68 8.71Q97.88 9.04 97.99 9.42Q98.10 9.81 98.10 10.21L98.10 10.21Q98.10 10.75 97.91 11.28Q97.73 11.81 97.38 12.24Q97.04 12.67 96.55 12.93Q96.07 13.19 95.48 13.19ZM102.27 11.15L102.27 11.15Q102.27 11.57 102.12 11.94Q101.96 12.31 101.69 12.58Q101.42 12.86 101.05 13.02Q100.67 13.17 100.24 13.17L100.24 13.17Q100.06 13.17 99.84 13.14Q99.63 13.10 99.42 13.04Q99.20 12.97 99.02 12.87Q98.83 12.76 98.70 12.62L98.70 12.62L99.51 11.57Q99.59 11.70 99.71 11.85Q99.83 12.00 99.98 12.13Q100.13 12.26 100.29 12.35Q100.46 12.43 100.63 12.43L100.63 12.43Q100.83 12.43 101.00 12.37Q101.18 12.30 101.31 12.17Q101.44 12.04 101.51 11.87Q101.59 11.70 101.59 11.50L101.59 11.50Q101.59 11.22 101.40 11.00Q101.21 10.77 100.96 10.55Q100.70 10.34 100.42 10.11Q100.15 9.88 99.98 9.60L99.98 9.60L99.26 10.64L99.00 10.45L99.82 9.31Q99.72 9.11 99.67 8.89Q99.61 8.67 99.61 8.46L99.61 8.46Q99.61 8.27 99.67 8.07Q99.74 7.86 99.85 7.69Q99.97 7.52 100.14 7.41Q100.30 7.29 100.52 7.29L100.52 7.29Q100.73 7.29 100.88 7.42Q101.03 7.55 101.03 7.79L101.03 7.79Q101.03 7.91 100.99 8.03Q100.95 8.16 100.88 8.28Q100.82 8.40 100.75 8.51Q100.67 8.63 100.60 8.72L100.60 8.72Q100.77 8.96 100.96 9.13Q101.15 9.30 101.34 9.45Q101.52 9.60 101.69 9.75Q101.86 9.90 101.99 10.09Q102.12 10.28 102.19 10.53Q102.27 10.79 102.27 11.15ZM100.72 7.91L100.72 7.91Q100.72 7.81 100.66 7.77Q100.59 7.72 100.51 7.72L100.51 7.72Q100.39 7.72 100.34 7.80Q100.30 7.88 100.30 7.97L100.30 7.97Q100.30 8.11 100.34 8.24Q100.39 8.37 100.45 8.48L100.45 8.48Q100.48 8.44 100.53 8.36Q100.57 8.29 100.61 8.20Q100.66 8.11 100.69 8.04Q100.72 7.96 100.72 7.91ZM117.63 11.90L117.85 12.10Q117.75 12.30 117.60 12.48Q117.44 12.67 117.25 12.81Q117.05 12.95 116.83 13.03Q116.61 13.12 116.38 13.12L116.38 13.12Q116.01 13.12 115.72 12.97Q115.43 12.83 115.24 12.59Q115.05 12.35 114.95 12.03Q114.86 11.72 114.86 11.37L114.86 11.37L114.86 4.57Q114.86 4.46 114.83 4.36Q114.81 4.25 114.75 4.17Q114.70 4.08 114.61 4.03Q114.53 3.98 114.41 3.98L114.41 3.98Q114.20 3.98 113.97 4.15Q113.73 4.31 113.49 4.62Q113.26 4.94 113.04 5.37Q112.82 5.81 112.65 6.34Q112.49 6.88 112.38 7.50Q112.28 8.11 112.28 8.79L112.28 8.79L112.28 12.74L110.87 13.25L110.87 4.57Q110.87 4.46 110.84 4.36Q110.82 4.25 110.76 4.17Q110.71 4.08 110.63 4.03Q110.54 3.98 110.42 3.98L110.42 3.98Q110.22 3.98 109.98 4.23Q109.74 4.48 109.51 4.89Q109.27 5.30 109.05 5.84Q108.83 6.38 108.66 6.96Q108.49 7.54 108.39 8.11Q108.29 8.69 108.29 9.17L108.29 9.17L108.29 12.74L106.87 13.25L106.87 3.46L108.29 2.95L108.29 6.81Q108.55 5.66 108.89 4.92Q109.23 4.18 109.60 3.75Q109.96 3.32 110.35 3.15Q110.73 2.99 111.09 2.99L111.09 2.99Q111.50 2.99 111.74 3.09Q111.98 3.19 112.10 3.36Q112.23 3.53 112.26 3.77Q112.29 4.01 112.28 4.29L112.28 4.29L112.28 6.32Q112.49 5.47 112.81 4.84Q113.14 4.22 113.52 3.80Q113.91 3.39 114.31 3.19Q114.72 2.99 115.08 2.99L115.08 2.99Q115.66 2.99 115.96 3.23Q116.27 3.47 116.27 4.05L116.27 4.05L116.27 11.59Q116.27 11.73 116.30 11.87Q116.33 12.00 116.39 12.11Q116.46 12.22 116.57 12.28Q116.68 12.35 116.83 12.35L116.83 12.35Q117.07 12.35 117.28 12.22Q117.49 12.08 117.63 11.90L117.63 11.90ZM123.87 12.03L124.07 12.24Q123.91 12.57 123.70 12.75Q123.48 12.93 123.29 13.01L123.29 13.01Q123.07 13.10 122.83 13.12L122.83 13.12Q122.53 13.12 122.33 13.02Q122.14 12.93 122.02 12.77Q121.91 12.61 121.86 12.41Q121.82 12.22 121.82 12.01L121.82 12.01L121.82 9.83Q121.76 10.08 121.68 10.42Q121.59 10.76 121.47 11.13Q121.34 11.50 121.18 11.87Q121.02 12.24 120.80 12.52Q120.59 12.81 120.32 12.99Q120.05 13.17 119.71 13.17L119.71 13.17Q119.43 13.17 119.27 13.07Q119.11 12.96 119.03 12.77Q118.95 12.57 118.94 12.30Q118.92 12.03 118.92 11.70L118.92 11.70L118.92 8.74Q118.92 8.57 118.84 8.48Q118.77 8.38 118.65 8.38Q118.53 8.37 118.38 8.46Q118.24 8.55 118.10 8.75L118.10 8.75L117.92 8.54Q118.08 8.22 118.28 8.04Q118.49 7.85 118.69 7.77L118.69 7.77Q118.91 7.68 119.15 7.66L119.15 7.66Q119.46 7.66 119.65 7.76Q119.85 7.85 119.96 8.01Q120.07 8.16 120.12 8.36Q120.16 8.56 120.16 8.76L120.16 8.76L120.16 11.59Q120.16 11.86 120.26 11.94Q120.35 12.02 120.51 11.92Q120.66 11.81 120.85 11.53Q121.04 11.25 121.23 10.78L121.23 10.78Q121.35 10.34 121.47 9.86L121.47 9.86Q121.56 9.46 121.66 8.98Q121.76 8.49 121.82 8.04L121.82 8.04L123.07 7.60L123.07 12.04Q123.07 12.21 123.15 12.30Q123.22 12.40 123.34 12.40Q123.46 12.41 123.60 12.32Q123.74 12.23 123.87 12.03L123.87 12.03ZM127.92 11.15L127.92 11.15Q127.92 11.57 127.76 11.94Q127.61 12.31 127.34 12.58Q127.07 12.86 126.69 13.02Q126.32 13.17 125.89 13.17L125.89 13.17Q125.71 13.17 125.49 13.14Q125.28 13.10 125.06 13.04Q124.85 12.97 124.66 12.87Q124.48 12.76 124.35 12.62L124.35 12.62L125.16 11.57Q125.24 11.70 125.36 11.85Q125.48 12.00 125.63 12.13Q125.77 12.26 125.94 12.35Q126.11 12.43 126.28 12.43L126.28 12.43Q126.48 12.43 126.65 12.37Q126.83 12.30 126.96 12.17Q127.09 12.04 127.16 11.87Q127.24 11.70 127.24 11.50L127.24 11.50Q127.24 11.22 127.05 11.00Q126.86 10.77 126.60 10.55Q126.35 10.34 126.07 10.11Q125.79 9.88 125.62 9.60L125.62 9.60L124.91 10.64L124.65 10.45L125.47 9.31Q125.37 9.11 125.32 8.89Q125.26 8.67 125.26 8.46L125.26 8.46Q125.26 8.27 125.32 8.07Q125.38 7.86 125.50 7.69Q125.62 7.52 125.78 7.41Q125.95 7.29 126.17 7.29L126.17 7.29Q126.38 7.29 126.53 7.42Q126.68 7.55 126.68 7.79L126.68 7.79Q126.68 7.91 126.64 8.03Q126.59 8.16 126.53 8.28Q126.47 8.40 126.40 8.51Q126.32 8.63 126.25 8.72L126.25 8.72Q126.42 8.96 126.61 9.13Q126.80 9.30 126.98 9.45Q127.17 9.60 127.34 9.75Q127.51 9.90 127.64 10.09Q127.76 10.28 127.84 10.53Q127.92 10.79 127.92 11.15ZM126.37 7.91L126.37 7.91Q126.37 7.81 126.30 7.77Q126.24 7.72 126.16 7.72L126.16 7.72Q126.04 7.72 125.99 7.80Q125.95 7.88 125.95 7.97L125.95 7.97Q125.95 8.11 125.99 8.24Q126.03 8.37 126.10 8.48L126.10 8.48Q126.13 8.44 126.17 8.36Q126.22 8.29 126.26 8.20Q126.31 8.11 126.34 8.04Q126.37 7.96 126.37 7.91ZM128.97 4.61L130.41 4.12L130.05 6.61L129.38 6.82L128.97 4.61ZM131.17 12.03L131.35 12.24Q131.20 12.57 130.99 12.75Q130.78 12.93 130.59 13.01L130.59 13.01Q130.36 13.10 130.13 13.12L130.13 13.12Q129.83 13.12 129.63 13.02Q129.43 12.93 129.32 12.77Q129.20 12.61 129.15 12.41Q129.11 12.22 129.11 12.01L129.11 12.01L129.11 8.18L130.37 7.75L130.37 12.04Q130.37 12.21 130.44 12.30Q130.52 12.40 130.64 12.40Q130.76 12.41 130.90 12.32Q131.04 12.23 131.17 12.03L131.17 12.03ZM136.59 11.31L136.79 11.55Q136.55 11.86 136.27 12.15Q135.99 12.44 135.66 12.67Q135.32 12.89 134.96 13.03Q134.59 13.17 134.19 13.17L134.19 13.17Q133.68 13.17 133.26 13.00Q132.84 12.82 132.53 12.49Q132.22 12.16 132.05 11.70Q131.88 11.23 131.88 10.66L131.88 10.66Q131.88 10.06 132.12 9.52Q132.36 8.98 132.77 8.57Q133.18 8.16 133.72 7.93Q134.26 7.69 134.85 7.69L134.85 7.69Q135.08 7.69 135.32 7.73Q135.56 7.78 135.77 7.87Q135.99 7.96 136.17 8.12Q136.35 8.27 136.47 8.48L136.47 8.48L135.50 9.02Q135.43 8.85 135.30 8.73Q135.17 8.61 135.02 8.52Q134.86 8.44 134.69 8.40Q134.51 8.36 134.35 8.36L134.35 8.36Q134.02 8.36 133.76 8.51Q133.50 8.65 133.32 8.89Q133.14 9.13 133.04 9.42Q132.95 9.72 132.95 10.03L132.95 10.03Q132.95 10.62 133.09 11.07Q133.23 11.52 133.49 11.83Q133.74 12.13 134.08 12.29Q134.42 12.45 134.83 12.45L134.83 12.45Q135.06 12.45 135.30 12.33Q135.55 12.22 135.78 12.04Q136.01 11.87 136.22 11.67Q136.42 11.47 136.59 11.31L136.59 11.31ZM142.87 12.01L143.06 12.22Q142.97 12.40 142.85 12.56Q142.73 12.71 142.57 12.84Q142.41 12.96 142.22 13.03Q142.03 13.10 141.83 13.10L141.83 13.10Q141.29 13.10 141.05 12.81Q140.81 12.51 140.81 12.00L140.81 12.00L140.81 11.87Q140.69 12.11 140.54 12.34Q140.38 12.57 140.19 12.76Q139.99 12.94 139.75 13.06Q139.51 13.17 139.22 13.17L139.22 13.17Q138.78 13.17 138.43 13.00Q138.09 12.83 137.86 12.54Q137.63 12.25 137.51 11.86Q137.40 11.47 137.40 11.03L137.40 11.03Q137.40 10.44 137.60 9.85Q137.81 9.26 138.19 8.79Q138.57 8.33 139.10 8.04Q139.63 7.75 140.28 7.75L140.28 7.75Q140.54 7.75 140.80 7.79Q141.06 7.84 141.30 7.95Q141.53 8.05 141.73 8.22Q141.92 8.39 142.04 8.64L142.04 8.64L141.03 9.07Q140.94 8.94 140.84 8.82Q140.73 8.70 140.60 8.61Q140.48 8.52 140.33 8.47Q140.19 8.42 140.03 8.42L140.03 8.42Q139.68 8.42 139.40 8.63Q139.13 8.85 138.93 9.17Q138.74 9.50 138.63 9.86Q138.53 10.22 138.53 10.51L138.53 10.51Q138.53 10.77 138.58 11.10Q138.63 11.42 138.76 11.71Q138.89 12.00 139.10 12.20Q139.32 12.39 139.64 12.39L139.64 12.39Q139.89 12.39 140.08 12.28Q140.26 12.17 140.39 11.99Q140.52 11.81 140.60 11.57Q140.69 11.33 140.73 11.09Q140.78 10.84 140.80 10.60Q140.81 10.36 140.81 10.17L140.81 10.17L140.81 9.69L142.06 9.26L142.06 12.03Q142.06 12.17 142.13 12.28Q142.19 12.39 142.34 12.39L142.34 12.39Q142.51 12.39 142.65 12.27Q142.79 12.14 142.87 12.01L142.87 12.01ZM143.77 4.61L145.21 4.12L144.85 6.61L144.18 6.82L143.77 4.61ZM145.97 12.03L146.15 12.24Q146.00 12.57 145.79 12.75Q145.58 12.93 145.39 13.01L145.39 13.01Q145.16 13.10 144.93 13.12L144.93 13.12Q144.63 13.12 144.43 13.02Q144.23 12.93 144.12 12.77Q144.00 12.61 143.95 12.41Q143.91 12.22 143.91 12.01L143.91 12.01L143.91 8.18L145.17 7.75L145.17 12.04Q145.17 12.21 145.24 12.30Q145.32 12.40 145.44 12.40Q145.56 12.41 145.70 12.32Q145.84 12.23 145.97 12.03L145.97 12.03ZM150.01 11.15L150.01 11.15Q150.01 11.57 149.86 11.94Q149.70 12.31 149.43 12.58Q149.16 12.86 148.79 13.02Q148.42 13.17 147.98 13.17L147.98 13.17Q147.80 13.17 147.58 13.14Q147.37 13.10 147.16 13.04Q146.95 12.97 146.76 12.87Q146.57 12.76 146.45 12.62L146.45 12.62L147.25 11.57Q147.33 11.70 147.45 11.85Q147.57 12.00 147.72 12.13Q147.87 12.26 148.04 12.35Q148.20 12.43 148.37 12.43L148.37 12.43Q148.57 12.43 148.75 12.37Q148.92 12.30 149.05 12.17Q149.18 12.04 149.26 11.87Q149.33 11.70 149.33 11.50L149.33 11.50Q149.33 11.22 149.14 11.00Q148.96 10.77 148.70 10.55Q148.44 10.34 148.17 10.11Q147.89 9.88 147.72 9.60L147.72 9.60L147.01 10.64L146.74 10.45L147.56 9.31Q147.46 9.11 147.41 8.89Q147.36 8.67 147.36 8.46L147.36 8.46Q147.36 8.27 147.42 8.07Q147.48 7.86 147.59 7.69Q147.71 7.52 147.88 7.41Q148.05 7.29 148.26 7.29L148.26 7.29Q148.48 7.29 148.62 7.42Q148.77 7.55 148.77 7.79L148.77 7.79Q148.77 7.91 148.73 8.03Q148.69 8.16 148.63 8.28Q148.57 8.40 148.49 8.51Q148.42 8.63 148.35 8.72L148.35 8.72Q148.51 8.96 148.70 9.13Q148.89 9.30 149.08 9.45Q149.26 9.60 149.43 9.75Q149.60 9.90 149.73 10.09Q149.86 10.28 149.94 10.53Q150.01 10.79 150.01 11.15ZM148.46 7.91L148.46 7.91Q148.46 7.81 148.40 7.77Q148.33 7.72 148.25 7.72L148.25 7.72Q148.13 7.72 148.09 7.80Q148.04 7.88 148.04 7.97L148.04 7.97Q148.04 8.11 148.08 8.24Q148.13 8.37 148.20 8.48L148.20 8.48Q148.22 8.44 148.27 8.36Q148.31 8.29 148.36 8.20Q148.40 8.11 148.43 8.04Q148.46 7.96 148.46 7.91Z"></path></g><!----><g data-v-423bf9ae="" id="c346b914-f34d-4ba7-814c-6887ed8df0f0" transform="matrix(2.8125,0,0,2.8125,-7.1699981689453125,0)" stroke="none" fill="black"><path d="M2.83 18.247l26.34-9.124L2.83 0zM29.17 32V13.753L2.83 22.877z"></path></g><!----></svg>